<svg xmlns="http://www.w3.org/2000/svg" width="50" height="90" viewBox="0 0 50 90"><path fill="none" stroke="#FFF" stroke-miterlimit="10" d="M48.5 20.5h-6c-.55 0-1 .45-1 1v4c0 .55.45 1 1 1h1V29l2.5-2.5h2.5c.55 0 1-.45 1-1v-4c0-.55-.45-1-1-1z"/><path fill="none" stroke="#212121" stroke-miterlimit="10" d="M3.12 9.5L.5 6.88V3.12L3.12.5h3.76L9.5 3.12v3.76L6.88 9.5zM20.8 9.5L25 1l4.2 8.5zM48.5.5h-6c-.55 0-1 .45-1 1v4c0 .55.45 1 1 1h1V9L46 6.5h2.5c.55 0 1-.45 1-1v-4c0-.55-.45-1-1-1z"/><path fill="none" stroke="#FFF" stroke-miterlimit="10" d="M3.12 29.5L.5 26.88v-3.76l2.62-2.62h3.76l2.62 2.62v3.76L6.88 29.5zM20.8 29.5L25 21l4.2 8.5z"/><path fill="#DC282A" stroke="#DC282A" stroke-miterlimit="10" d="M3.12 49.5L.5 46.88v-3.76l2.62-2.62h3.76l2.62 2.62v3.76L6.88 49.5z"/><path fill="#FFF" stroke="#FFF" stroke-miterlimit="10" d="M3.12 69.5L.5 66.88v-3.76l2.62-2.62h3.76l2.62 2.62v3.76L6.88 69.5z"/><path fill="#212121" stroke="#212121" stroke-miterlimit="10" d="M3.12 89.5L.5 86.88v-3.76l2.62-2.62h3.76l2.62 2.62v3.76L6.88 89.5z"/><path fill="#FC0" stroke="#FC0" stroke-miterlimit="10" d="M20.8 49.5L25 41l4.2 8.5z"/><path fill="#212121" stroke="#212121" stroke-miterlimit="10" d="M20.8 89.5L25 81l4.2 8.5z"/><path fill="#FFF" stroke="#FFF" stroke-miterlimit="10" d="M20.8 69.5L25 61l4.2 8.5z"/><path fill="#116CD6" stroke="#116CD6" stroke-miterlimit="10" d="M48.5 40.5h-6c-.55 0-1 .45-1 1v4c0 .55.45 1 1 1h1V49l2.5-2.5h2.5c.55 0 1-.45 1-1v-4c0-.55-.45-1-1-1z"/><path fill="#FFF" stroke="#FFF" stroke-miterlimit="10" d="M48.5 60.5h-6c-.55 0-1 .45-1 1v4c0 .55.45 1 1 1h1V69l2.5-2.5h2.5c.55 0 1-.45 1-1v-4c0-.55-.45-1-1-1z"/><path fill="#212121" stroke="#212121" stroke-miterlimit="10" d="M48.5 80.5h-6c-.55 0-1 .45-1 1v4c0 .55.45 1 1 1h1V89l2.5-2.5h2.5c.55 0 1-.45 1-1v-4c0-.55-.45-1-1-1z"/></svg>